<svg width="42" height="42" viewBox="0 0 42 42" fill="none" xmlns="http://www.w3.org/2000/svg">
    <rect x="0.5" y="0.5" width="41" height="41" rx="7.5" fill="white"/>
    <rect x="0.5" y="0.5" width="41" height="41" rx="7.5" stroke="#ECECEB"/>
    <path d="M26.9873 26.0162C27.1156 26.145 27.1876 26.3195 27.1876 26.5013C27.1876 26.6831 27.1156 26.8576 26.9873 26.9864C26.8936 27.0784 24.6798 29.25 21 29.25C17.7868 29.25 15.4545 27.325 14.125 25.8254V27.875C14.125 28.0573 14.0526 28.2322 13.9236 28.3611C13.7947 28.4901 13.6198 28.5625 13.4375 28.5625C13.2552 28.5625 13.0803 28.4901 12.9514 28.3611C12.8224 28.2322 12.75 28.0573 12.75 27.875V23.75C12.75 23.5677 12.8224 23.3928 12.9514 23.2639C13.0803 23.1349 13.2552 23.0625 13.4375 23.0625H17.5625C17.7448 23.0625 17.9197 23.1349 18.0486 23.2639C18.1776 23.3928 18.25 23.5677 18.25 23.75C18.25 23.9323 18.1776 24.1072 18.0486 24.2361C17.9197 24.3651 17.7448 24.4375 17.5625 24.4375H14.7644C15.8231 25.7566 17.9922 27.875 21 27.875C24.0938 27.875 25.9964 26.0308 26.0153 26.0119C26.1448 25.8836 26.3199 25.812 26.5022 25.8128C26.6844 25.8136 26.8589 25.8868 26.9873 26.0162ZM28.5625 13.4375C28.3802 13.4375 28.2053 13.5099 28.0764 13.6389C27.9474 13.7678 27.875 13.9427 27.875 14.125V16.1746C26.5455 14.675 24.2132 12.75 21 12.75C17.3202 12.75 15.1064 14.9216 15.0136 15.0136C14.8844 15.1424 14.8116 15.3172 14.8113 15.4996C14.8109 15.6821 14.8831 15.8572 15.0119 15.9864C15.1407 16.1156 15.3155 16.1884 15.4979 16.1887C15.6804 16.1891 15.8555 16.1169 15.9847 15.9881C16.0036 15.9692 17.9062 14.125 21 14.125C24.0078 14.125 26.1769 16.2434 27.2356 17.5625H24.4375C24.2552 17.5625 24.0803 17.6349 23.9514 17.7639C23.8224 17.8928 23.75 18.0677 23.75 18.25C23.75 18.4323 23.8224 18.6072 23.9514 18.7361C24.0803 18.8651 24.2552 18.9375 24.4375 18.9375H28.5625C28.7448 18.9375 28.9197 18.8651 29.0486 18.7361C29.1776 18.6072 29.25 18.4323 29.25 18.25V14.125C29.25 13.9427 29.1776 13.7678 29.0486 13.6389C28.9197 13.5099 28.7448 13.4375 28.5625 13.4375Z" fill="#515161"/>
</svg>
