<svg width="68" height="74" viewBox="0 0 68 74" fill="none" xmlns="http://www.w3.org/2000/svg">
    <g filter="url(#filter0_dd_1046_53)">
        <rect x="8" y="2" width="52" height="52" rx="26" fill="white"/>
        <rect x="8" y="2" width="52" height="52" rx="26" fill="url(#paint0_linear_1046_53)"/>
        <rect x="8.5" y="2.5" width="51" height="51" rx="25.5" stroke="url(#paint1_linear_1046_53)"/>
        <path d="M21.12 33.5692C21.4254 33.5692 21.673 31.0758 21.673 28C21.673 24.9242 21.4254 22.4308 21.12 22.4308C20.8146 22.4308 20.567 24.9242 20.567 28C20.567 31.0758 20.8146 33.5692 21.12 33.5692Z" fill="black"/>
        <path d="M22.59 34.188C22.9302 34.188 23.206 31.4176 23.206 28C23.206 24.5825 22.9302 21.812 22.59 21.812C22.2498 21.812 21.974 24.5825 21.974 28C21.974 31.4176 22.2498 34.188 22.59 34.188Z" fill="black"/>
        <path d="M24.228 34.8816C24.603 34.8816 24.907 31.8006 24.907 28C24.907 24.1994 24.603 21.1184 24.228 21.1184C23.853 21.1184 23.549 24.1994 23.549 28C23.549 31.8006 23.853 34.8816 24.228 34.8816Z" fill="black"/>
        <path d="M26.041 35.6432C26.4585 35.6432 26.797 32.2212 26.797 28C26.797 23.7788 26.4585 20.3568 26.041 20.3568C25.6234 20.3568 25.285 23.7788 25.285 28C25.285 32.2212 25.6234 35.6432 26.041 35.6432Z" fill="black"/>
        <path d="M28.057 36.4932C28.5209 36.4932 28.897 32.6906 28.897 28C28.897 23.3094 28.5209 19.5068 28.057 19.5068C27.5931 19.5068 27.217 23.3094 27.217 28C27.217 32.6906 27.5931 36.4932 28.057 36.4932Z" fill="black"/>
        <path d="M30.304 37.4384C30.8181 37.4384 31.235 33.2127 31.235 28C31.235 22.7873 30.8181 18.5616 30.304 18.5616C29.7898 18.5616 29.373 22.7873 29.373 28C29.373 33.2127 29.7898 37.4384 30.304 37.4384Z" fill="black"/>
        <path d="M32.796 38.4856C33.3682 38.4856 33.832 33.791 33.832 28C33.832 22.209 33.3682 17.5144 32.796 17.5144C32.2238 17.5144 31.76 22.209 31.76 28C31.76 33.791 32.2238 38.4856 32.796 38.4856Z" fill="black"/>
        <path d="M35.561 39.6484C36.1989 39.6484 36.716 34.4332 36.716 28C36.716 21.5668 36.1989 16.3516 35.561 16.3516C34.9231 16.3516 34.406 21.5668 34.406 28C34.406 34.4332 34.9231 39.6484 35.561 39.6484Z" fill="black"/>
        <path d="M38.634 40.9472C39.3415 40.9472 39.915 35.1505 39.915 28C39.915 20.8495 39.3415 15.0528 38.634 15.0528C37.9265 15.0528 37.353 20.8495 37.353 28C37.353 35.1505 37.9265 40.9472 38.634 40.9472Z" fill="black"/>
        <path d="M42.05 42.382C42.8348 42.382 43.471 35.943 43.471 28C43.471 20.0571 42.8348 13.618 42.05 13.618C41.2653 13.618 40.629 20.0571 40.629 28C40.629 35.943 41.2653 42.382 42.05 42.382Z" fill="black"/>
        <path d="M45.844 43.98C46.7178 43.98 47.426 36.8255 47.426 28C47.426 19.1745 46.7178 12.02 45.844 12.02C44.9703 12.02 44.262 19.1745 44.262 28C44.262 36.8255 44.9703 43.98 45.844 43.98Z" fill="black"/>
    </g>
    <defs>
        <filter id="filter0_dd_1046_53" x="0" y="0" width="68" height="74" filterUnits="userSpaceOnUse" color-interpolation-filters="sRGB">
            <feFlood flood-opacity="0" result="BackgroundImageFix"/>
            <feColorMatrix in="SourceAlpha" type="matrix" values="0 0 0 0 0 0 0 0 0 0 0 0 0 0 0 0 0 0 127 0" result="hardAlpha"/>
            <feOffset dy="12"/>
            <feGaussianBlur stdDeviation="4"/>
            <feComposite in2="hardAlpha" operator="out"/>
            <feColorMatrix type="matrix" values="0 0 0 0 0 0 0 0 0 0 0 0 0 0 0 0 0 0 0.03 0"/>
            <feBlend mode="normal" in2="BackgroundImageFix" result="effect1_dropShadow_1046_53"/>
            <feColorMatrix in="SourceAlpha" type="matrix" values="0 0 0 0 0 0 0 0 0 0 0 0 0 0 0 0 0 0 127 0" result="hardAlpha"/>
            <feMorphology radius="2" operator="dilate" in="SourceAlpha" result="effect2_dropShadow_1046_53"/>
            <feOffset/>
            <feComposite in2="hardAlpha" operator="out"/>
            <feColorMatrix type="matrix" values="0 0 0 0 1 0 0 0 0 1 0 0 0 0 1 0 0 0 1 0"/>
            <feBlend mode="normal" in2="effect1_dropShadow_1046_53" result="effect2_dropShadow_1046_53"/>
            <feBlend mode="normal" in="SourceGraphic" in2="effect2_dropShadow_1046_53" result="shape"/>
        </filter>
        <linearGradient id="paint0_linear_1046_53" x1="34" y1="54" x2="34" y2="2" gradientUnits="userSpaceOnUse">
            <stop offset="0.5" stop-color="#232323" stop-opacity="0"/>
            <stop offset="1" stop-color="#232323" stop-opacity="0.06"/>
        </linearGradient>
        <linearGradient id="paint1_linear_1046_53" x1="34" y1="2" x2="34" y2="54" gradientUnits="userSpaceOnUse">
            <stop stop-color="#EDEDED" stop-opacity="0.7"/>
            <stop offset="0.7" stop-color="#EDEDED" stop-opacity="0"/>
        </linearGradient>
    </defs>
</svg>
